{
  "accessors": [
    {
      "bufferView": 2,
      "componentType": 5126,
      "count": 65532,
      "max": [
        0.2205750048160553,
        0.0,
        0.26983898878097534
      ],
      "min": [
        0.0,
        -0.39353999495506287,
        0.0011790000135079026
      ],
      "type": "VEC3"
    },
    {
      "bufferView": 2,
      "byteOffset": 786384,
      "componentType": 5126,
      "count": 65532,
      "max": [
        0.999975860118866,
        0.9999276995658875,
        0.9999822974205017
      ],
      "min": [
        -0.9999910593032837,
        -0.9999943971633911,
        -0.9999830722808838
      ],
      "type": "VEC3"
    },
    {
      "bufferView": 1,
      "componentType": 5126,
      "count": 65532,
      "max": [
        0.8870220184326172,
        0.991500973701477
      ],
      "min": [
        0.0212009996175766,
        0.0019529999699443579
      ],
      "type": "VEC2"
    },
    {
      "bufferView": 0,
      "componentType": 5125,
      "count": 293298,
      "type": "SCALAR"
    },
    {
      "bufferView": 2,
      "byteOffset": 1572768,
      "componentType": 5126,
      "count": 65532,
      "max": [
        0.21946099400520325,
        -0.012512999586760998,
        0.2687090039253235
      ],
      "min": [
        0.008055999875068665,
        -0.39258500933647156,
        0.0018070000223815441
      ],
      "type": "VEC3"
    },
    {
      "bufferView": 2,
      "byteOffset": 2359152,
      "componentType": 5126,
      "count": 65532,
      "max": [
        0.9999657869338989,
        0.9998695254325867,
        0.999842643737793
      ],
      "min": [
        -0.9999839067459106,
        -0.9999827742576599,
        -0.9999405741691589
      ],
      "type": "VEC3"
    },
    {
      "bufferView": 1,
      "byteOffset": 524256,
      "componentType": 5126,
      "count": 65532,
      "max": [
        0.9047070145606995,
        0.9979659914970398
      ],
      "min": [
        0.0033650000113993883,
        0.0835689976811409
      ],
      "type": "VEC2"
    },
    {
      "bufferView": 0,
      "byteOffset": 1173192,
      "componentType": 5125,
      "count": 294540,
      "type": "SCALAR"
    },
    {
      "bufferView": 2,
      "byteOffset": 3145536,
      "componentType": 5126,
      "count": 65532,
      "max": [
        0.22051699459552765,
        0.0,
        0.26969999074935913
      ],
      "min": [
        0.0003760000108741224,
        -0.3937009871006012,
        -0.0
      ],
      "type": "VEC3"
    },
    {
      "bufferView": 2,
      "byteOffset": 3931920,
      "componentType": 5126,
      "count": 65532,
      "max": [
        0.9999918341636658,
        0.9999255537986755,
        0.9999639391899109
      ],
      "min": [
        -0.9999871850013733,
        -0.9999555349349976,
        -0.999987781047821
      ],
      "type": "VEC3"
    },
    {
      "bufferView": 1,
      "byteOffset": 1048512,
      "componentType": 5126,
      "count": 65532,
      "max": [
        0.8907020092010498,
        0.994717001914978
      ],
      "min": [
        0.002116000046953559,
        0.016951000317931175
      ],
      "type": "VEC2"
    },
    {
      "bufferView": 0,
      "byteOffset": 2351352,
      "componentType": 5125,
      "count": 265116,
      "type": "SCALAR"
    },
    {
      "bufferView": 2,
      "byteOffset": 4718304,
      "componentType": 5126,
      "count": 26545,
      "max": [
        0.21962200105190277,
        -0.0001449999981559813,
        0.2695330083370209
      ],
      "min": [
        0.0007699999841861427,
        -0.39362001419067383,
        0.001285000005736947
      ],
      "type": "VEC3"
    },
    {
      "bufferView": 2,
      "byteOffset": 5036844,
      "componentType": 5126,
      "count": 26545,
      "max": [
        0.9999020099639893,
        0.9998695254325867,
        0.9999195337295532
      ],
      "min": [
        -0.9999812841415405,
        -0.9999740123748779,
        -0.9999514222145081
      ],
      "type": "VEC3"
    },
    {
      "bufferView": 1,
      "byteOffset": 1572768,
      "componentType": 5126,
      "count": 26545,
      "max": [
        0.8955540060997009,
        0.995278000831604
      ],
      "min": [
        0.0019529999699443579,
        0.010219000279903412
      ],
      "type": "VEC2"
    },
    {
      "bufferView": 0,
      "byteOffset": 3411816,
      "componentType": 5125,
      "count": 47034,
      "type": "SCALAR"
    }
  ],
  "asset": {
    "extras": {
      "author": "Digitage (https://sketchfab.com/digitage)",
      "license": "SKETCHFAB Standard (https://sketchfab.com/licenses)",
      "source": "https://sketchfab.com/3d-models/male-hd-headscan-3-nil-343df16f0c5a42a2abff7309bcf6760b",
      "title": "Male HD Headscan #3 Nil"
    },
    "generator": "Sketchfab-12.66.0",
    "version": "2.0"
  },
  "bufferViews": [
    {
      "buffer": 0,
      "byteLength": 3599952,
      "name": "floatBufferViews",
      "target": 34963
    },
    {
      "buffer": 0,
      "byteLength": 1785128,
      "byteOffset": 3599952,
      "byteStride": 8,
      "name": "floatBufferViews",
      "target": 34962
    },
    {
      "buffer": 0,
      "byteLength": 5355384,
      "byteOffset": 5385080,
      "byteStride": 12,
      "name": "floatBufferViews",
      "target": 34962
    }
  ],
  "buffers": [
    {
      "byteLength": 10740464,
      "uri": "scene.bin"
    }
  ],
  "extensionsUsed": [
    "KHR_materials_unlit"
  ],
  "images": [
    {
      "uri": "mat0_baseColor.jpeg"
    }
  ],
  "materials": [
    {
      "doubleSided": true,
      "extensions": {
        "KHR_materials_unlit": {}
      },
      "name": "mat0",
      "pbrMetallicRoughness": {
        "baseColorTexture": {
          "index": 0
        },
        "metallicFactor": 0.0
      }
    }
  ],
  "meshes": [
    {
      "name": "Object_0",
      "primitives": [
        {
          "attributes": {
            "NORMAL": 1,
            "POSITION": 0,
            "TEXCOORD_0": 2
          },
          "indices": 3,
          "material": 0,
          "mode": 4
        }
      ]
    },
    {
      "name": "Object_1",
      "primitives": [
        {
          "attributes": {
            "NORMAL": 5,
            "POSITION": 4,
            "TEXCOORD_0": 6
          },
          "indices": 7,
          "material": 0,
          "mode": 4
        }
      ]
    },
    {
      "name": "Object_2",
      "primitives": [
        {
          "attributes": {
            "NORMAL": 9,
            "POSITION": 8,
            "TEXCOORD_0": 10
          },
          "indices": 11,
          "material": 0,
          "mode": 4
        }
      ]
    },
    {
      "name": "Object_3",
      "primitives": [
        {
          "attributes": {
            "NORMAL": 13,
            "POSITION": 12,
            "TEXCOORD_0": 14
          },
          "indices": 15,
          "material": 0,
          "mode": 4
        }
      ]
    }
  ],
  "nodes": [
    {
      "children": [
        1
      ],
      "matrix": [
        1.0,
        0.0,
        0.0,
        0.0,
        0.0,
        -1.0,
        -4.440892098500626e-16,
        0.0,
        0.0,
        4.440892098500626e-16,
        -1.0,
        0.0,
        0.0,
        -0.06193061545491226,
        0.33176931738853455,
        1.0
      ],
      "name": "Sketchfab_model"
    },
    {
      "children": [
        2,
        3,
        4,
        5
      ],
      "name": "9_espagnol_001.obj.cleaner.materialmerger.gles"
    },
    {
      "mesh": 0,
      "name": "Object_2"
    },
    {
      "mesh": 1,
      "name": "Object_3"
    },
    {
      "mesh": 2,
      "name": "Object_4"
    },
    {
      "mesh": 3,
      "name": "Object_5"
    }
  ],
  "samplers": [
    {
      "magFilter": 9729,
      "minFilter": 9987,
      "wrapS": 10497,
      "wrapT": 10497
    }
  ],
  "scene": 0,
  "scenes": [
    {
      "name": "Sketchfab_Scene",
      "nodes": [
        0
      ]
    }
  ],
  "textures": [
    {
      "sampler": 0,
      "source": 0
    }
  ]
}
